# xmcd
#
# Track frame offsets: 
#        150
#        3230
#        25970
#        45062
#        63622
#        81182
#        99067
#        119335
#        135477
#        155232
#        177945
#
# Disc length: 2600 seconds
#
# Revision: 0
# Processed by: cddbd v1.5.2PL0 Copyright (c) Steve Scherf et al.
# Submitted via: ExactAudioCopy v0.99pb4
#
DISCID=7f0a260b
DTITLE=KANG HEE SOO - Blue Loving
DYEAR=1997
DGENRE=Blues
TTITLE0=영혼(靈魂)
TTITLE1=널 잊기위한 사랑
TTITLE2=너의 이별
TTITLE3=Single 선언
TTITLE4=나쁜 여자 (Bad Girl)
TTITLE5=슬픈 사랑 뒤에
TTITLE6=다시 시작해
TTITLE7=Last Christmas (지난 크리스마스..
TTITLE8=이별을 해야 한다면
TTITLE9=널 잊기 위한 사랑 (悲)
TTITLE10=낙엽이 지는 거리
EXTD=
EXTT0=
EXTT1=
EXTT2=
EXTT3=
EXTT4=
EXTT5=
EXTT6=
EXTT7=
EXTT8=
EXTT9=
EXTT10=
PLAYORDER=
